
File Name

Letters To Juliet 2010 816p BRRip H264.mp4

File Size
Format : MPEG-4
Format profile : Base Media
Codec ID : isom
File size : 3.75 GiB
Duration : 1h 45mn
Overall bit rate : 5 089 Kbps

Video
ID : 1
Format : AVC
Format/Info : Advanced Video Codec
Format profile : High@L4.1
Format settings, CABAC : Yes
Format settings, ReFrames : 3 frames
Codec ID : avc1
Codec ID/Info : Advanced Video Coding
Duration : 1h 45mn
Bit rate mode : Variable
Bit rate : 4 449 Kbps
Maximum bit rate : 14.4 Mbps
Width : 1 920 pixels
Height : 816 pixels
Display aspect ratio : 2.35:1
Frame rate mode : Constant
Frame rate : 23.976 fps
Resolution : 24 bits
Colorimetry : 4:2:0
Scan type : Progressive
Bits/(Pixel*Frame) : 0.118
Stream size : 3.27 GiB (87%)

Audio #1
ID : 2
Format : AAC
Format/Info : Advanced Audio Codec
Format version : Version 4
Format profile : LC
Format settings, SBR : No
Codec ID : 40
Duration : 1h 45mn
Bit rate mode : Variable
Bit rate : 192 Kbps
Maximum bit rate : 198 Kbps
Channel(s) : 2 channels
Channel positions : L R
Sampling rate : 48.0 KHz
Resolution : 16 bits
Stream size : 144 MiB (4%)

Audio #2
ID : 3
Format : AAC
Format/Info : Advanced Audio Codec
Format version : Version 4
Format profile : LC
Format settings, SBR : No
Codec ID : 40
Duration : 1h 45mn
Bit rate mode : Variable
Bit rate : 448 Kbps
Maximum bit rate : 458 Kbps
Channel(s) : 6 channels
Channel positions : Front: L C R, Rear: L R, LFE
Sampling rate : 48.0 KHz
Resolution : 16 bits
Stream size : 337 MiB (9%)

English SRT : External

Language : English



 
http://www.imdb.com/title/tt0892318/

Release Date: 14 May 2010 (USA)

Genre: Comedy | Drama | Romance

Plot: An American girl on vacation in Italy finds an unanswered "letter to Juliet" -- one of thousands of missives left at the fictional lover's Verona courtyard, which are typically answered by a the "secretaries of Juliet" -- and she goes on a quest to find the lovers referenced in the letter.

Cast:
Amanda Seyfried ... Sophie
Marcia DeBonis ... Lorraine
Gael García Bernal ... Victor
Giordano Formenti ... Viticoltore
Paolo Arvedi ... Signor Ricci (Olive Farmer)
Dario Conti ... Cheese Supplier
Daniel Baldock ... Lorenzo jr.
Ivana Lotito ... Young Girl
Luisa Ranieri ... Isabella
Marina Massironi ... Francesca
Lidia Biondi ... Donatella
Milena Vukotic ... Maria
Luisa De Santis ... Angelina
Christopher Egan ... Charlie
Vanessa Redgrave ... Claire